<mxfile host="65bd71144e">
    <diagram id="C5ATzdxkMFycsXHwgSJX" name="PÃ¡gina-1">
        <mxGraphModel dx="265" dy="352" grid="1" gridSize="10" guides="1" tooltips="1" connect="1" arrows="1" fold="1" page="1" pageScale="1" pageWidth="827" pageHeight="1169" math="0" shadow="0">
            <root>
                <mxCell id="0"/>
                <mxCell id="1" parent="0"/>
                <mxCell id="4" value="" style="edgeStyle=none;html=1;" edge="1" parent="1" source="2">
                    <mxGeometry relative="1" as="geometry">
                        <mxPoint x="152" y="70" as="targetPoint"/>
                    </mxGeometry>
                </mxCell>
                <mxCell id="2" value="INICIO" style="ellipse;whiteSpace=wrap;html=1;fillColor=#994C00;" vertex="1" parent="1">
                    <mxGeometry x="110" y="20" width="90" height="30" as="geometry"/>
                </mxCell>
                <mxCell id="7" value="" style="edgeStyle=none;html=1;" edge="1" parent="1" source="3" target="6">
                    <mxGeometry relative="1" as="geometry"/>
                </mxCell>
                <mxCell id="3" value="edad" style="shape=card;whiteSpace=wrap;html=1;" vertex="1" parent="1">
                    <mxGeometry x="110" y="70" width="80" height="40" as="geometry"/>
                </mxCell>
                <mxCell id="9" value="" style="edgeStyle=none;html=1;" edge="1" parent="1" source="6" target="8">
                    <mxGeometry relative="1" as="geometry"/>
                </mxCell>
                <mxCell id="6" value="edad" style="shape=parallelogram;perimeter=parallelogramPerimeter;whiteSpace=wrap;html=1;fixedSize=1;fillColor=#006600;" vertex="1" parent="1">
                    <mxGeometry x="100" y="140" width="100" height="30" as="geometry"/>
                </mxCell>
                <mxCell id="11" style="edgeStyle=none;html=1;exitX=1;exitY=0.5;exitDx=0;exitDy=0;" edge="1" parent="1" source="8">
                    <mxGeometry relative="1" as="geometry">
                        <mxPoint x="260" y="310" as="targetPoint"/>
                        <Array as="points">
                            <mxPoint x="260" y="265"/>
                        </Array>
                    </mxGeometry>
                </mxCell>
                <mxCell id="13" style="edgeStyle=none;html=1;entryX=0.5;entryY=0;entryDx=0;entryDy=0;" edge="1" parent="1" source="8" target="12">
                    <mxGeometry relative="1" as="geometry">
                        <Array as="points">
                            <mxPoint x="50" y="260"/>
                        </Array>
                    </mxGeometry>
                </mxCell>
                <mxCell id="8" value="edad&amp;gt;=18" style="rhombus;whiteSpace=wrap;html=1;fillColor=#4C0099;" vertex="1" parent="1">
                    <mxGeometry x="110" y="225" width="80" height="80" as="geometry"/>
                </mxCell>
                <mxCell id="10" value="mayor de dad" style="shape=document;whiteSpace=wrap;html=1;boundedLbl=1;fillColor=#1A1A1A;" vertex="1" parent="1">
                    <mxGeometry x="230" y="310" width="110" height="75" as="geometry"/>
                </mxCell>
                <mxCell id="12" value="menor de edad" style="shape=document;whiteSpace=wrap;html=1;boundedLbl=1;fillColor=#1A1A1A;" vertex="1" parent="1">
                    <mxGeometry y="310" width="100" height="60" as="geometry"/>
                </mxCell>
                <mxCell id="15" value="" style="endArrow=none;html=1;exitX=0.388;exitY=0.964;exitDx=0;exitDy=0;exitPerimeter=0;entryX=0.467;entryY=0.96;entryDx=0;entryDy=0;entryPerimeter=0;" edge="1" parent="1" source="12" target="10">
                    <mxGeometry width="50" height="50" relative="1" as="geometry">
                        <mxPoint x="30" y="440" as="sourcePoint"/>
                        <mxPoint x="300" y="440" as="targetPoint"/>
                        <Array as="points">
                            <mxPoint x="40" y="480"/>
                            <mxPoint x="190" y="480"/>
                            <mxPoint x="280" y="480"/>
                        </Array>
                    </mxGeometry>
                </mxCell>
                <mxCell id="16" value="TRUE" style="text;html=1;strokeColor=none;fillColor=none;align=center;verticalAlign=middle;whiteSpace=wrap;rounded=0;" vertex="1" parent="1">
                    <mxGeometry x="190" y="230" width="60" height="30" as="geometry"/>
                </mxCell>
                <mxCell id="17" value="FALSE" style="text;html=1;strokeColor=none;fillColor=none;align=center;verticalAlign=middle;whiteSpace=wrap;rounded=0;" vertex="1" parent="1">
                    <mxGeometry x="60" y="230" width="60" height="30" as="geometry"/>
                </mxCell>
                <mxCell id="18" value="" style="endArrow=classic;html=1;" edge="1" parent="1">
                    <mxGeometry width="50" height="50" relative="1" as="geometry">
                        <mxPoint x="160" y="480" as="sourcePoint"/>
                        <mxPoint x="160" y="540" as="targetPoint"/>
                    </mxGeometry>
                </mxCell>
                <mxCell id="19" value="FIN" style="ellipse;whiteSpace=wrap;html=1;fillColor=#CC0000;" vertex="1" parent="1">
                    <mxGeometry x="120" y="545" width="85" height="55" as="geometry"/>
                </mxCell>
            </root>
        </mxGraphModel>
    </diagram>
</mxfile>